<mxfile host="app.diagrams.net" modified="2024-02-10T09:55:30.992Z" agent="Mozilla/5.0 (Windows NT 10.0; Win64; x64) AppleWebKit/537.36 (KHTML, like Gecko) Chrome/121.0.0.0 Safari/537.36" etag="jMWfqoSTr4tu-5dA0gdq" version="23.1.1" type="github">
  <diagram name="第 1 页" id="kd0IngQO-NX0Z4IXm5Hr">
    <mxGraphModel dx="763" dy="480" grid="1" gridSize="10" guides="1" tooltips="1" connect="1" arrows="1" fold="1" page="1" pageScale="1" pageWidth="1169" pageHeight="827" math="0" shadow="0">
      <root>
        <mxCell id="0" />
        <mxCell id="1" parent="0" />
        <mxCell id="T8Cmm9tjSnSGJ9qowqUV-20" value="Heap 1" style="swimlane;whiteSpace=wrap;html=1;fontFamily=Times New Roman;fontStyle=1;dashed=1;fontSize=14;verticalAlign=middle;" vertex="1" parent="1">
          <mxGeometry x="370" y="320" width="120" height="150" as="geometry">
            <mxRectangle x="80" y="390" width="70" height="30" as="alternateBounds" />
          </mxGeometry>
        </mxCell>
        <mxCell id="T8Cmm9tjSnSGJ9qowqUV-21" value="Res A" style="rounded=1;whiteSpace=wrap;html=1;fontFamily=Times New Roman;fontStyle=2;fontSize=14;align=left;spacingLeft=10;verticalAlign=middle;" vertex="1" parent="T8Cmm9tjSnSGJ9qowqUV-20">
          <mxGeometry y="30" width="120" height="20" as="geometry" />
        </mxCell>
        <mxCell id="T8Cmm9tjSnSGJ9qowqUV-23" value="Res B" style="rounded=1;whiteSpace=wrap;html=1;fontFamily=Times New Roman;fontStyle=2;fontSize=14;align=left;spacingLeft=10;verticalAlign=middle;" vertex="1" parent="T8Cmm9tjSnSGJ9qowqUV-20">
          <mxGeometry y="60" width="120" height="20" as="geometry" />
        </mxCell>
        <mxCell id="T8Cmm9tjSnSGJ9qowqUV-24" value="Res C" style="rounded=1;whiteSpace=wrap;html=1;fontFamily=Times New Roman;fontStyle=2;fontSize=14;align=left;spacingLeft=10;verticalAlign=middle;" vertex="1" parent="T8Cmm9tjSnSGJ9qowqUV-20">
          <mxGeometry y="90" width="80" height="20" as="geometry" />
        </mxCell>
        <mxCell id="T8Cmm9tjSnSGJ9qowqUV-25" value="Res D" style="rounded=1;whiteSpace=wrap;html=1;fontFamily=Times New Roman;fontStyle=2;fontSize=14;align=left;spacingLeft=10;verticalAlign=middle;" vertex="1" parent="T8Cmm9tjSnSGJ9qowqUV-20">
          <mxGeometry y="120" width="60" height="20" as="geometry" />
        </mxCell>
        <mxCell id="T8Cmm9tjSnSGJ9qowqUV-31" value="Heap 2" style="swimlane;whiteSpace=wrap;html=1;fontFamily=Times New Roman;fontStyle=1;dashed=1;fontSize=14;verticalAlign=middle;" vertex="1" parent="1">
          <mxGeometry x="500" y="320" width="60" height="120" as="geometry">
            <mxRectangle x="80" y="390" width="70" height="30" as="alternateBounds" />
          </mxGeometry>
        </mxCell>
        <mxCell id="T8Cmm9tjSnSGJ9qowqUV-32" value="Res E" style="rounded=1;whiteSpace=wrap;html=1;fontFamily=Times New Roman;fontStyle=2;fontSize=14;align=left;spacingLeft=10;verticalAlign=middle;" vertex="1" parent="T8Cmm9tjSnSGJ9qowqUV-31">
          <mxGeometry y="30" width="60" height="20" as="geometry" />
        </mxCell>
        <mxCell id="T8Cmm9tjSnSGJ9qowqUV-33" value="Res F" style="rounded=1;whiteSpace=wrap;html=1;fontFamily=Times New Roman;fontStyle=2;fontSize=14;align=left;spacingLeft=10;verticalAlign=middle;" vertex="1" parent="T8Cmm9tjSnSGJ9qowqUV-31">
          <mxGeometry y="60" width="50" height="20" as="geometry" />
        </mxCell>
        <mxCell id="T8Cmm9tjSnSGJ9qowqUV-36" value="Res G" style="rounded=1;whiteSpace=wrap;html=1;fontFamily=Times New Roman;fontStyle=2;fontSize=14;align=left;spacingLeft=10;verticalAlign=middle;" vertex="1" parent="T8Cmm9tjSnSGJ9qowqUV-31">
          <mxGeometry y="90" width="50" height="20" as="geometry" />
        </mxCell>
        <mxCell id="T8Cmm9tjSnSGJ9qowqUV-37" value="Heap 1" style="swimlane;whiteSpace=wrap;html=1;fontFamily=Times New Roman;fontStyle=1;dashed=1;fontSize=14;verticalAlign=middle;" vertex="1" parent="1">
          <mxGeometry x="120" y="320" width="120" height="150" as="geometry">
            <mxRectangle x="80" y="390" width="70" height="30" as="alternateBounds" />
          </mxGeometry>
        </mxCell>
        <mxCell id="T8Cmm9tjSnSGJ9qowqUV-38" value="Res A" style="rounded=1;whiteSpace=wrap;html=1;fontFamily=Times New Roman;fontStyle=2;fontSize=14;align=left;spacingLeft=10;verticalAlign=middle;" vertex="1" parent="T8Cmm9tjSnSGJ9qowqUV-37">
          <mxGeometry y="30" width="120" height="20" as="geometry" />
        </mxCell>
        <mxCell id="T8Cmm9tjSnSGJ9qowqUV-39" value="Res B" style="rounded=1;whiteSpace=wrap;html=1;fontFamily=Times New Roman;fontStyle=2;fontSize=14;align=left;spacingLeft=10;verticalAlign=middle;" vertex="1" parent="T8Cmm9tjSnSGJ9qowqUV-37">
          <mxGeometry y="60" width="120" height="20" as="geometry" />
        </mxCell>
        <mxCell id="T8Cmm9tjSnSGJ9qowqUV-40" value="Res C" style="rounded=1;whiteSpace=wrap;html=1;fontFamily=Times New Roman;fontStyle=2;fontSize=14;align=left;spacingLeft=10;verticalAlign=middle;" vertex="1" parent="T8Cmm9tjSnSGJ9qowqUV-37">
          <mxGeometry y="90" width="80" height="20" as="geometry" />
        </mxCell>
        <mxCell id="T8Cmm9tjSnSGJ9qowqUV-41" value="Res D" style="rounded=1;whiteSpace=wrap;html=1;fontFamily=Times New Roman;fontStyle=2;fontSize=14;align=left;spacingLeft=10;verticalAlign=middle;" vertex="1" parent="T8Cmm9tjSnSGJ9qowqUV-37">
          <mxGeometry y="120" width="60" height="20" as="geometry" />
        </mxCell>
        <mxCell id="T8Cmm9tjSnSGJ9qowqUV-43" value="Res E" style="rounded=1;whiteSpace=wrap;html=1;fontFamily=Times New Roman;fontStyle=2;fontSize=14;align=left;spacingLeft=10;verticalAlign=middle;" vertex="1" parent="T8Cmm9tjSnSGJ9qowqUV-37">
          <mxGeometry x="60" y="120" width="60" height="20" as="geometry" />
        </mxCell>
        <mxCell id="T8Cmm9tjSnSGJ9qowqUV-42" value="Heap 2" style="swimlane;whiteSpace=wrap;html=1;fontFamily=Times New Roman;fontStyle=1;dashed=1;fontSize=14;verticalAlign=middle;" vertex="1" parent="1">
          <mxGeometry x="250" y="320" width="50" height="90" as="geometry">
            <mxRectangle x="80" y="390" width="70" height="30" as="alternateBounds" />
          </mxGeometry>
        </mxCell>
        <mxCell id="T8Cmm9tjSnSGJ9qowqUV-44" value="Res F" style="rounded=1;whiteSpace=wrap;html=1;fontFamily=Times New Roman;fontStyle=2;fontSize=14;align=left;spacingLeft=10;verticalAlign=middle;" vertex="1" parent="T8Cmm9tjSnSGJ9qowqUV-42">
          <mxGeometry y="30" width="50" height="20" as="geometry" />
        </mxCell>
        <mxCell id="T8Cmm9tjSnSGJ9qowqUV-45" value="Res G" style="rounded=1;whiteSpace=wrap;html=1;fontFamily=Times New Roman;fontStyle=2;fontSize=14;align=left;spacingLeft=10;verticalAlign=middle;" vertex="1" parent="T8Cmm9tjSnSGJ9qowqUV-42">
          <mxGeometry y="60" width="50" height="20" as="geometry" />
        </mxCell>
      </root>
    </mxGraphModel>
  </diagram>
</mxfile>
